<svg width="120" height="120" viewBox="0 0 120 120" xmlns="http://www.w3.org/2000/svg">
  <defs>
    <linearGradient id="schulte-bg" x1="12%" y1="10%" x2="88%" y2="90%">
      <stop offset="0" stop-color="#e0f6ff" />
      <stop offset="1" stop-color="#c0e9ff" />
    </linearGradient>
  </defs>
  <rect width="120" height="120" rx="28" fill="url(#schulte-bg)" />
  <g transform="translate(22 22)">
    <rect x="0" y="0" width="76" height="76" rx="18" fill="rgba(56,189,248,0.12)" />
    <g fill="#38bdf8" font-family="'Inter', sans-serif" font-weight="600" font-size="16" text-anchor="middle">
      <rect x="6" y="6" width="18" height="18" rx="6" fill="rgba(56,189,248,0.22)" />
      <text x="15" y="21">1</text>
      <rect x="29" y="6" width="18" height="18" rx="6" fill="rgba(56,189,248,0.22)" />
      <text x="38" y="21">5</text>
      <rect x="52" y="6" width="18" height="18" rx="6" fill="rgba(56,189,248,0.22)" />
      <text x="61" y="21">9</text>

      <rect x="6" y="29" width="18" height="18" rx="6" fill="rgba(56,189,248,0.22)" />
      <text x="15" y="44">2</text>
      <rect x="29" y="29" width="18" height="18" rx="6" fill="rgba(56,189,248,0.22)" />
      <text x="38" y="44">7</text>
      <rect x="52" y="29" width="18" height="18" rx="6" fill="rgba(56,189,248,0.22)" />
      <text x="61" y="44">11</text>

      <rect x="6" y="52" width="18" height="18" rx="6" fill="rgba(56,189,248,0.22)" />
      <text x="15" y="67">3</text>
      <rect x="29" y="52" width="18" height="18" rx="6" fill="rgba(56,189,248,0.22)" />
      <text x="38" y="67">4</text>
      <rect x="52" y="52" width="18" height="18" rx="6" fill="rgba(56,189,248,0.22)" />
      <text x="61" y="67">10</text>
    </g>
  </g>
  <circle cx="96" cy="94" r="10" fill="#38bdf8" opacity="0.6" />
</svg>
